<svg width="33" height="33" viewBox="0 0 33 33" fill="none" xmlns="http://www.w3.org/2000/svg">
<path d="M16.5 11.625C15.2071 11.625 13.9671 12.1386 13.0529 13.0529C12.1386 13.9671 11.625 15.2071 11.625 16.5C11.625 17.7929 12.1386 19.0329 13.0529 19.9471C13.9671 20.8614 15.2071 21.375 16.5 21.375C17.7929 21.375 19.0329 20.8614 19.9471 19.9471C20.8614 19.0329 21.375 17.7929 21.375 16.5C21.375 15.2071 20.8614 13.9671 19.9471 13.0529C19.0329 12.1386 17.7929 11.625 16.5 11.625ZM16.5 8.375C18.6549 8.375 20.7215 9.23103 22.2452 10.7548C23.769 12.2785 24.625 14.3451 24.625 16.5C24.625 18.6549 23.769 20.7215 22.2452 22.2452C20.7215 23.769 18.6549 24.625 16.5 24.625C14.3451 24.625 12.2785 23.769 10.7548 22.2452C9.23103 20.7215 8.375 18.6549 8.375 16.5C8.375 14.3451 9.23103 12.2785 10.7548 10.7548C12.2785 9.23103 14.3451 8.375 16.5 8.375V8.375ZM27.0625 7.96875C27.0625 8.50747 26.8485 9.02413 26.4676 9.40506C26.0866 9.786 25.57 10 25.0313 10C24.4925 10 23.9759 9.786 23.5949 9.40506C23.214 9.02413 23 8.50747 23 7.96875C23 7.43003 23.214 6.91337 23.5949 6.53244C23.9759 6.15151 24.4925 5.9375 25.0313 5.9375C25.57 5.9375 26.0866 6.15151 26.4676 6.53244C26.8485 6.91337 27.0625 7.43003 27.0625 7.96875V7.96875ZM16.5 3.5C12.4798 3.5 11.8233 3.51138 9.95288 3.59425C8.67888 3.65438 7.82413 3.825 7.03113 4.13375C6.32588 4.40675 5.81725 4.73338 5.27613 5.27613C4.76751 5.76752 4.37645 6.36745 4.13213 7.03113C3.82338 7.82738 3.65275 8.6805 3.59425 9.95288C3.50975 11.7469 3.5 12.3741 3.5 16.5C3.5 20.5203 3.51138 21.1768 3.59425 23.0471C3.65438 24.3195 3.825 25.1759 4.13213 25.9673C4.40838 26.6741 4.73338 27.1828 5.27288 27.7223C5.8205 28.2683 6.32913 28.5949 7.02788 28.8646C7.83063 29.175 8.68538 29.3473 9.95288 29.4058C11.7469 29.4903 12.3741 29.5 16.5 29.5C20.5203 29.5 21.1768 29.4886 23.0471 29.4058C24.3179 29.3456 25.1743 29.175 25.9673 28.8679C26.6709 28.5933 27.1828 28.2666 27.7223 27.7271C28.2699 27.1795 28.5965 26.6709 28.8663 25.9721C29.175 25.171 29.3473 24.3146 29.4058 23.0471C29.4903 21.2531 29.5 20.6259 29.5 16.5C29.5 12.4798 29.4886 11.8233 29.4058 9.95288C29.3456 8.68213 29.175 7.82413 28.8663 7.03113C28.6214 6.36813 28.231 5.76844 27.7239 5.27613C27.2327 4.76725 26.6327 4.37615 25.9689 4.13213C25.1726 3.82338 24.3179 3.65275 23.0471 3.59425C21.2531 3.50975 20.6259 3.5 16.5 3.5ZM16.5 0.25C20.9151 0.25 21.466 0.26625 23.1983 0.3475C24.9289 0.42875 26.107 0.700125 27.1438 1.10313C28.2163 1.51588 29.1198 2.07488 30.0233 2.97675C30.8496 3.78908 31.4889 4.77171 31.8969 5.85625C32.2983 6.89138 32.5713 8.07113 32.6525 9.80175C32.7289 11.534 32.75 12.0849 32.75 16.5C32.75 20.9151 32.7338 21.466 32.6525 23.1983C32.5713 24.9289 32.2983 26.107 31.8969 27.1438C31.4901 28.2289 30.8506 29.2118 30.0233 30.0233C29.2107 30.8493 28.2281 31.4886 27.1438 31.8969C26.1086 32.2983 24.9289 32.5713 23.1983 32.6525C21.466 32.7289 20.9151 32.75 16.5 32.75C12.0849 32.75 11.534 32.7338 9.80175 32.6525C8.07113 32.5713 6.893 32.2983 5.85625 31.8969C4.77128 31.4898 3.78848 30.8503 2.97675 30.0233C2.15029 29.2111 1.51089 28.2284 1.10313 27.1438C0.700125 26.1086 0.42875 24.9289 0.3475 23.1983C0.271125 21.466 0.25 20.9151 0.25 16.5C0.25 12.0849 0.26625 11.534 0.3475 9.80175C0.42875 8.0695 0.700125 6.893 1.10313 5.85625C1.50976 4.77104 2.14931 3.78815 2.97675 2.97675C3.78872 2.15 4.77145 1.51056 5.85625 1.10313C6.893 0.700125 8.0695 0.42875 9.80175 0.3475C11.534 0.271125 12.0849 0.25 16.5 0.25Z" fill="white"/>
</svg>
