<svg width="14" height="14" viewBox="0 0 14 14" fill="none" xmlns="http://www.w3.org/2000/svg">
    <rect x="0.5" y="0.5" width="13" height="13" rx="6.5" fill="white" stroke="#333333" />
    <path d="M10.7486 12.3968C10.2973 12.8359 9.89902 13.1065 9.38009 13.275C8.82244 13.4562 8.10733 13.5256 7.00781 13.5256C5.90838 13.5256 5.1891 13.4562 4.62727 13.2749C4.10439 13.1061 3.70253 12.8353 3.25138 12.3968C3.27826 11.3896 3.69584 10.3648 4.3618 9.58379C5.05015 8.77657 5.98529 8.25 7 8.25C8.01471 8.25 8.94985 8.77657 9.6382 9.58379C10.3042 10.3648 10.7218 11.3897 10.7486 12.3968Z"
          stroke="#333333" stroke-width="0.5" />
    <path d="M8.75 6.5C8.75 7.4665 7.9665 8.25 7 8.25C6.0335 8.25 5.25 7.4665 5.25 6.5C5.25 5.5335 6.0335 4.75 7 4.75C7.9665 4.75 8.75 5.5335 8.75 6.5Z"
          fill="white" stroke="#333333" stroke-width="0.5" />
</svg>
