<svg width="14" height="14" viewBox="0 0 14 14" fill="none" xmlns="http://www.w3.org/2000/svg">
    <rect x="0.5" y="0.5" width="13" height="13" rx="6.5" fill="white" stroke="#333333" />
    <path d="M10.7486 12.3968C10.2973 12.8359 9.89902 13.1065 9.38009 13.275C8.82244 13.4562 8.10733 13.5256 7.00781 13.5256C5.90838 13.5256 5.1891 13.4562 4.62727 13.2749C4.10439 13.1061 3.70253 12.8353 3.25139 12.3968C3.27838 11.3899 3.69764 10.3651 4.36549 9.58404C5.05582 8.77667 5.993 8.25 7.00781 8.25C8.02241 8.25 8.95552 8.77646 9.64189 9.58353C10.306 10.3644 10.7219 11.3894 10.7486 12.3968Z"
          stroke="#333333" stroke-width="0.5" />
    <path d="M8.75 6.5C8.75 7.4665 7.9665 8.25 7 8.25C6.0335 8.25 5.25 7.4665 5.25 6.5C5.25 5.5335 6.0335 4.75 7 4.75C7.9665 4.75 8.75 5.5335 8.75 6.5Z"
          fill="white" stroke="#333333" stroke-width="0.5" />
    <rect x="6.25" y="9.25" width="7.5" height="2.5" rx="0.75" fill="white" stroke="black" stroke-width="0.5" />
    <path d="M7.38818 10.998L7.7207 10.5996L7.24463 10.4678L7.33984 10.1909L7.80566 10.3828L7.77051 9.86719H8.08252L8.04443 10.3931L8.5 10.2056L8.59375 10.4854L8.11035 10.6172L8.43115 11.0054L8.1792 11.1782L7.90967 10.7476L7.64014 11.1636L7.38818 10.998ZM8.78564 10.998L9.11816 10.5996L8.64209 10.4678L8.7373 10.1909L9.20312 10.3828L9.16797 9.86719H9.47998L9.44189 10.3931L9.89746 10.2056L9.99121 10.4854L9.50781 10.6172L9.82861 11.0054L9.57666 11.1782L9.30713 10.7476L9.0376 11.1636L8.78564 10.998ZM10.1831 10.998L10.5156 10.5996L10.0396 10.4678L10.1348 10.1909L10.6006 10.3828L10.5654 9.86719H10.8774L10.8394 10.3931L11.2949 10.2056L11.3887 10.4854L10.9053 10.6172L11.2261 11.0054L10.9741 11.1782L10.7046 10.7476L10.4351 11.1636L10.1831 10.998ZM11.5806 10.998L11.9131 10.5996L11.437 10.4678L11.5322 10.1909L11.998 10.3828L11.9629 9.86719H12.2749L12.2368 10.3931L12.6924 10.2056L12.7861 10.4854L12.3027 10.6172L12.6235 11.0054L12.3716 11.1782L12.1021 10.7476L11.8325 11.1636L11.5806 10.998Z"
          fill="black" />
</svg>
